<svg id="Camada_1" data-name="Camada 1" xmlns="http://www.w3.org/2000/svg" viewBox="0 0 392.05 96.99"><path d="M112.33,86.17a5.59,5.59,0,0,1,2.24.43,5.29,5.29,0,0,1,1.76,1.2,4.93,4.93,0,0,1,1,1.64,5.84,5.84,0,0,1-.05,4.22,5,5,0,0,1-2.85,2.79,5.9,5.9,0,0,1-2.14.38h-4.44V86.17Zm-2.57,1.7v7.25h2.5a3.83,3.83,0,0,0,1.48-.27,3.34,3.34,0,0,0,1.12-.73,3.63,3.63,0,0,0,1-2.63,3.58,3.58,0,0,0-1-2.6,3.37,3.37,0,0,0-1.12-.74,3.72,3.72,0,0,0-1.5-.28Z"/><path d="M119.25,87.94h7.07v1.71h-5.17v1.77h4.62v1.71h-4.62v2h5.35v1.71h-7.25Z"/><path d="M127.94,90.29a2.14,2.14,0,0,1,.23-1.05,2.28,2.28,0,0,1,.62-.73,3.42,3.42,0,0,1,1.33-.57,8.69,8.69,0,0,1,1.64-.16,8.52,8.52,0,0,1,1.78.2,9.61,9.61,0,0,1,1.93.66l-.68,1.52a9.21,9.21,0,0,0-1.54-.51,6.25,6.25,0,0,0-1.42-.16l-.93,0a1.43,1.43,0,0,0-.8.29.65.65,0,0,0-.24.51.56.56,0,0,0,.23.48,2.1,2.1,0,0,0,.89.3l1.75.3a8.48,8.48,0,0,1,1.32.34,3,3,0,0,1,1.06.6,2.25,2.25,0,0,1,.54.74,2.48,2.48,0,0,1,.19,1,2.76,2.76,0,0,1-.21,1.14,2.49,2.49,0,0,1-.59.81,3.4,3.4,0,0,1-1.54.73,9,9,0,0,1-2,.21c-.37,0-.71,0-1,0a6.86,6.86,0,0,1-1.79-.42c-.29-.11-.59-.25-.92-.41l.64-1.56a8.07,8.07,0,0,0,1.61.57,6.56,6.56,0,0,0,1.47.16,3.92,3.92,0,0,0,2-.36.89.89,0,0,0,.46-.78.57.57,0,0,0-.1-.34.84.84,0,0,0-.23-.23,1.64,1.64,0,0,0-.5-.22c-.2,0-.42-.1-.66-.14l-2-.35a3.29,3.29,0,0,1-2-.93A2.32,2.32,0,0,1,127.94,90.29Z"/><path d="M137.25,87.94h7.07v1.71h-5.17v1.77h4.62v1.71h-4.62v2h5.35v1.71h-7.25Z"/><path d="M154.5,87.94v8.89h-1.72L148,91v5.83H146.1V87.94h1.72l4.83,5.81V87.94Z"/><path d="M159.5,96.83l-3.66-8.89h2.07l2.6,6.9h.18l2.57-6.9h2.06l-3.67,8.89Z"/><path d="M170.14,87.78a4.78,4.78,0,0,1,1.91.37,4.43,4.43,0,0,1,1.5,1,4.23,4.23,0,0,1,1,1.44,4.78,4.78,0,0,1,0,3.59,4.23,4.23,0,0,1-1,1.51,4.53,4.53,0,0,1-1.46.94,5.09,5.09,0,0,1-1.86.34,4.91,4.91,0,0,1-1.9-.36,4.39,4.39,0,0,1-1.49-1,4.47,4.47,0,0,1-1-1.46,4.6,4.6,0,0,1-.36-1.81,4.44,4.44,0,0,1,.39-1.84,4.36,4.36,0,0,1,1-1.51,4.48,4.48,0,0,1,1.45-.92A4.94,4.94,0,0,1,170.14,87.78Zm-2.82,4.6a3.23,3.23,0,0,0,.21,1.19,2.66,2.66,0,0,0,.59.9,2.7,2.7,0,0,0,2,.81,3,3,0,0,0,1.09-.2,2.71,2.71,0,0,0,.87-.58,2.74,2.74,0,0,0,.84-2.12,3.14,3.14,0,0,0-.22-1.21,2.38,2.38,0,0,0-.62-.92,2.76,2.76,0,0,0-.88-.56,2.8,2.8,0,0,0-1.08-.2,3,3,0,0,0-1.13.21,2.62,2.62,0,0,0-.92.62,2.48,2.48,0,0,0-.57.88A3.18,3.18,0,0,0,167.32,92.38Z"/><path d="M183.27,95.12v1.71h-7V87.94h1.9v7.18Z"/><path d="M186.24,96.83l-3.66-8.89h2.08l2.59,6.9h.18l2.58-6.9h2.06l-3.68,8.89Z"/><path d="M195.3,87.94v8.89h-1.9V87.94Z"/><path d="M199,87.94,202,92.21l2.89-4.27h1.94v8.89h-1.9V91h-.07l-2.51,3.73h-.76L199,91h-.07v5.85H197.1V87.94Z"/><path d="M208.56,87.94h7.07v1.71h-5.17v1.77h4.62v1.71h-4.62v2h5.35v1.71h-7.25Z"/><path d="M225.81,87.94v8.89h-1.72L219.27,91v5.83h-1.86V87.94h1.72L224,93.75V87.94Z"/><path d="M227.14,87.94h8.25v1.71h-3.18v7.18h-1.9V89.65h-3.17Z"/><path d="M240.22,87.78a4.87,4.87,0,0,1,1.92.37,4.64,4.64,0,0,1,1.5,1,4.54,4.54,0,0,1,1,1.44,4.8,4.8,0,0,1,.34,1.77,4.65,4.65,0,0,1-.36,1.82,4.36,4.36,0,0,1-1,1.51,4.68,4.68,0,0,1-1.47.94,5,5,0,0,1-1.86.34,5,5,0,0,1-1.9-.36,4.49,4.49,0,0,1-1.49-1,4.63,4.63,0,0,1-1-1.46,4.78,4.78,0,0,1-.35-1.81,4.59,4.59,0,0,1,.38-1.84A4.53,4.53,0,0,1,236.94,89a4.37,4.37,0,0,1,1.45-.92A4.89,4.89,0,0,1,240.22,87.78Zm-2.82,4.6a3.23,3.23,0,0,0,.21,1.19,2.81,2.81,0,0,0,.59.9,2.71,2.71,0,0,0,2,.81,2.94,2.94,0,0,0,1.09-.2,2.71,2.71,0,0,0,.87-.58,2.74,2.74,0,0,0,.84-2.12,3.34,3.34,0,0,0-.21-1.21,2.29,2.29,0,0,0-.63-.92,2.76,2.76,0,0,0-.88-.56,2.8,2.8,0,0,0-1.08-.2,3,3,0,0,0-1.13.21,2.59,2.59,0,0,0-.91.62,2.65,2.65,0,0,0-.58.88A3.18,3.18,0,0,0,237.4,92.38Z"/><path d="M254.46,96.83l-3.22-10.66h2.06L255.74,95h.07l2.13-8.79h2.6L262.77,95h.08l2.4-8.79h2l-3.22,10.66h-2.63l-2.2-8.41h-.07c-.17.66-.34,1.35-.51,2l-.54,2.14c-.18.73-.35,1.44-.52,2.15s-.34,1.4-.51,2.07Z"/><path d="M268.62,87.94h7.07v1.71h-5.17v1.77h4.62v1.71h-4.62v2h5.35v1.71h-7.25Z"/><path d="M277.47,96.83V87.94h4.6a3.43,3.43,0,0,1,1.22.21,2.48,2.48,0,0,1,.92.63,2.15,2.15,0,0,1,.45.71,2.65,2.65,0,0,1,.16.92,1.67,1.67,0,0,1-.24.89,1.79,1.79,0,0,1-.53.57v.07a2.09,2.09,0,0,1,.9.78,2.31,2.31,0,0,1,.34,1.32,2.6,2.6,0,0,1-.85,2,3.2,3.2,0,0,1-1,.56,3.55,3.55,0,0,1-1.24.21Zm5.45-6.35a.82.82,0,0,0-.23-.62.8.8,0,0,0-.29-.18,1.4,1.4,0,0,0-.44-.07h-2.59v1.74h2.76a.78.78,0,0,0,.6-.26A1,1,0,0,0,282.92,90.48Zm.47,3.59a1.15,1.15,0,0,0-.25-.73,1,1,0,0,0-.83-.33h-2.94v2.16h2.89a1.11,1.11,0,0,0,.85-.33,1.26,1.26,0,0,0,.21-.32A1.42,1.42,0,0,0,283.39,94.07Z"/><path d="M292.22,87.94h7.07v1.71h-5.17v1.77h4.62v1.71h-4.62v2h5.35v1.71h-7.25Z"/><path d="M308.46,86.17l3.77,5.27,3.68-5.27h2V96.83h-1.9V89H316l-3.49,5h-.7l-3.53-5h-.06v7.82h-1.8V86.17Z"/><path d="M327.62,93.06a4.17,4.17,0,0,1-.31,1.59,4,4,0,0,1-.88,1.29,3.85,3.85,0,0,1-1.21.75,4,4,0,0,1-1.53.28,4.18,4.18,0,0,1-1.62-.3,4,4,0,0,1-1.23-.82,4.38,4.38,0,0,1-.81-1.26,3.9,3.9,0,0,1-.3-1.53V87.94h1.9v5.2a2,2,0,0,0,.57,1.5,1.94,1.94,0,0,0,1.49.62,2.06,2.06,0,0,0,.84-.16,1.75,1.75,0,0,0,.63-.44,1.93,1.93,0,0,0,.4-.65,2.14,2.14,0,0,0,.16-.87v-5.2h1.9Z"/><path d="M336.4,95.12v1.71h-7V87.94h1.9v7.18Z"/><path d="M335.54,87.94h8.25v1.71h-3.18v7.18H338.7V89.65h-3.16Z"/><path d="M347,87.94v8.89h-1.9V87.94Z"/><path d="M350.75,87.94l2.92,4.27,2.89-4.27h1.94v8.89h-1.9V91h-.07L354,94.71h-.76L350.72,91h-.07v5.85h-1.84V87.94Z"/><path d="M360.28,87.94h7.07v1.71h-5.17v1.77h4.62v1.71h-4.62v2h5.35v1.71h-7.25Zm3.91-4.44,1.6.8-1.55,2.79L363,86.5Z"/><path d="M372.89,87.94a4.71,4.71,0,0,1,1.84.34,4.24,4.24,0,0,1,1.43.94,4.46,4.46,0,0,1,.93,1.39,4.8,4.8,0,0,1,0,3.55,4.29,4.29,0,0,1-.93,1.4,4.53,4.53,0,0,1-1.43.93,4.9,4.9,0,0,1-1.84.34h-3.76V87.94ZM371,89.65v5.47h1.79a3,3,0,0,0,1.16-.21,2.43,2.43,0,0,0,.85-.6,2.7,2.7,0,0,0,.69-1.93,3.25,3.25,0,0,0-.18-1.12,2.57,2.57,0,0,0-.54-.85,2.67,2.67,0,0,0-.86-.56,3,3,0,0,0-1.12-.2Z"/><path d="M380.84,87.94v8.89h-1.91V87.94Z"/><path d="M388.07,87.94,392,96.83H390l-.69-1.59h-4.37l-.7,1.59h-2l3.94-8.89Zm-2.45,5.6h2.89l-1.38-3.48H387Z"/><path d="M85.75,93.86l-3,3H5.67l-3-3L40.36,74.09l.42-.21a6.6,6.6,0,0,0,6.79,0h0l.51.27Z"/><path d="M88.41,87l-1.08,4.09L51.4,68.32,50.81,68a6.59,6.59,0,0,0-3.21-5.41l0-1-1.76-42,4.06,1.1Z"/><path d="M42.65,19.57,40.88,61.65l0,.85a6.61,6.61,0,0,0-3.26,5.4l-.68.43L1.06,91.09,0,87.07,38.48,20.7Z"/><polygon points="198.3 32.29 198.3 0 185.38 0 185.38 19.37 107.89 19.37 107.89 71.04 190.86 71.04 198.3 58.13 198.3 58.12 120.8 58.12 120.8 32.29 198.3 32.29"/><rect x="243.51" y="19.37" width="12.91" height="32.29"/><rect x="282.26" y="19.37" width="12.91" height="32.29"/><polygon points="217.67 19.38 204.76 19.38 204.76 71.04 287.73 71.04 295.17 58.13 295.17 58.12 217.67 58.12 217.67 19.38"/><rect x="301.63" y="38.75" width="12.92" height="32.29"/><rect x="340.38" y="38.75" width="12.92" height="32.29"/><polygon points="309.07 19.38 301.63 32.29 301.63 32.29 379.13 32.29 379.13 71.04 392.05 71.04 392.05 19.38 309.07 19.38"/></svg>